<svg version="1.1" id="Layer_1" xmlns="http://www.w3.org/2000/svg" xmlns:xlink="http://www.w3.org/1999/xlink" x="0px" y="0px"
	 width="100%" viewBox="0 0 512 512" enable-background="new 0 0 512 512" xml:space="preserve">
<path fill="#000000" opacity="1.000000" stroke="none" 
	d="
M513.000000,204.000000 
	C513.000000,307.308228 513.000000,410.116455 513.000000,512.962341 
	C342.400085,512.962341 171.800186,512.962341 1.100134,512.962341 
	C1.100134,342.441803 1.100134,171.883514 1.100134,1.162619 
	C171.666534,1.162619 342.333252,1.162619 513.000000,1.162619 
	C513.000000,68.533112 513.000000,136.016556 513.000000,204.000000 
M145.426117,119.030403 
	C145.214157,119.330978 145.002182,119.631554 144.873718,119.925362 
	C144.873718,119.925362 144.866898,119.841858 144.168152,119.962189 
	C142.087341,122.640755 140.006546,125.319328 137.201050,127.970253 
	C136.293747,129.245346 135.610916,130.801361 134.435349,131.740753 
	C131.392624,134.172150 129.883698,139.842438 124.115677,136.900696 
	C119.785667,134.692337 115.352890,132.677505 111.083923,130.359116 
	C102.391869,125.638664 93.773834,120.781609 85.138138,115.957870 
	C82.751228,114.624588 81.191948,114.688721 79.515549,117.433746 
	C73.535553,127.225792 67.036461,136.701813 61.096569,146.516983 
	C57.149204,153.039673 57.386749,153.246841 63.130440,158.872101 
	C65.007401,160.710373 67.071953,162.380035 69.176918,163.958511 
	C77.099869,169.899811 84.973740,175.914886 93.061058,181.626129 
	C100.026070,186.544830 100.563011,187.399994 98.964226,194.102020 
	C96.842438,202.996460 94.890572,211.931412 92.779091,220.828384 
	C92.246742,223.071503 91.453384,224.989655 88.416908,225.190674 
	C83.351707,225.526001 78.333000,226.532623 73.269005,226.923325 
	C62.171635,227.779541 51.058155,228.426956 39.199390,229.416397 
	C38.801346,230.445862 38.064304,231.473648 38.059223,232.505035 
	C38.020725,240.316833 38.125706,248.129333 38.066956,256.879059 
	C38.048599,261.539215 38.311123,266.222961 37.921738,270.851929 
	C37.618107,274.461426 39.531815,275.578918 42.354885,275.932007 
	C48.702869,276.725861 55.076912,277.308746 61.434132,278.032104 
	C67.237625,278.692505 73.044540,279.342346 78.827446,280.156708 
	C82.212448,280.633331 85.604073,281.240784 88.890755,282.155640 
	C90.331139,282.556641 92.429123,283.673615 92.675797,284.804230 
	C94.932381,295.147522 96.356964,305.688019 101.426956,315.255280 
	C101.888458,316.126129 100.999954,318.469788 100.033112,319.217377 
	C93.720177,324.098450 87.212921,328.728241 80.768707,333.439514 
	C73.665802,338.632263 66.499496,343.743134 59.548805,349.132172 
	C58.787777,349.722229 58.662914,352.251923 59.260849,353.302795 
	C65.357956,364.018616 71.450943,374.752472 78.106506,385.120911 
	C79.357407,387.069641 83.217064,388.528412 85.645363,388.247375 
	C88.941048,387.865936 92.031136,385.618896 95.183868,384.118408 
	C97.939079,382.807129 100.664970,381.433624 103.393112,380.066254 
	C108.875778,377.318237 114.675316,375.046051 119.755821,371.687592 
	C127.969284,366.257965 129.839081,366.242126 135.966141,374.716583 
	C136.617264,375.242584 137.268402,375.768555 138.072433,376.136169 
	C138.072433,376.136169 137.914062,375.983215 138.048096,376.552032 
	C138.351120,376.787323 138.654144,377.022644 139.109543,377.645203 
	C139.282150,377.888977 139.517426,378.021423 140.001251,378.718842 
	C141.653336,380.208649 143.305405,381.698425 145.088867,383.603699 
	C145.258591,383.867981 145.499863,384.014343 145.998474,384.714844 
	C147.319534,385.762451 148.640594,386.810089 150.572388,388.174530 
	C154.205261,391.477783 157.676071,394.243103 153.033081,399.930634 
	C149.902298,403.765778 148.642410,409.126617 146.537872,413.801453 
	C142.262680,423.297913 138.252609,432.926483 133.618546,442.244629 
	C129.910568,449.700653 130.228546,451.223480 137.510178,455.149078 
	C146.897736,460.209961 156.040741,465.725098 165.437714,470.767609 
	C168.649139,472.490845 171.841415,472.452881 174.406754,468.745789 
	C179.591370,461.253754 185.050766,453.946655 190.549881,446.679108 
	C194.892166,440.940338 199.852570,435.627899 203.760712,429.620178 
	C205.582581,426.819519 206.355148,424.204834 210.417114,425.391632 
	C220.715958,428.400665 231.053665,431.276733 241.970047,434.374695 
	C242.612335,443.609192 243.356812,453.466125 243.965454,463.331451 
	C244.452988,471.233185 244.775558,479.145050 245.047394,487.923492 
	C244.410812,490.885773 246.094452,491.058167 248.426941,491.039368 
	C259.720734,490.948242 271.015991,491.050018 282.310059,490.978851 
	C292.852234,490.912445 292.240479,492.605865 292.027588,480.272552 
	C292.280029,479.664856 292.687683,479.075531 292.761993,478.446777 
	C294.231995,466.011139 295.641022,453.568298 297.117493,441.133453 
	C297.513428,437.798798 297.416840,434.123352 301.923676,433.181244 
	C312.262268,431.020111 322.588715,428.800812 333.214081,426.542664 
	C344.334290,440.332855 356.000458,454.800110 367.457825,469.008392 
	C370.985016,467.415894 373.767578,466.657227 375.963684,465.081207 
	C385.085388,458.535156 394.079163,451.806274 402.976318,444.957977 
	C404.063324,444.121277 405.175934,441.783844 404.754944,440.780273 
	C402.620850,435.692993 400.022675,430.796997 397.515320,425.870514 
	C393.385254,417.755829 389.305420,409.612335 384.980255,401.601990 
	C383.495544,398.852234 384.104645,397.138641 386.291687,395.273743 
	C394.044495,388.662750 401.937378,382.190643 407.474670,373.387329 
	C408.033325,372.499176 410.207581,372.015045 411.430573,372.278564 
	C414.403137,372.919098 417.367676,373.869232 420.132446,375.137238 
	C424.108368,376.960724 427.828400,379.339386 431.793793,381.189270 
	C438.473999,384.305542 445.210327,387.316132 452.026123,390.120636 
	C455.119324,391.393372 458.425568,392.233246 461.710449,392.896973 
	C462.554535,393.067505 464.168549,392.066162 464.602234,391.192719 
	C467.079376,386.204041 469.139893,381.006683 471.659760,376.041565 
	C475.053345,369.354828 478.841980,362.867584 482.182678,356.156158 
	C482.701385,355.114105 482.248718,352.696320 481.377869,352.000916 
	C476.069855,347.762207 470.600281,343.708618 465.013428,339.840546 
	C457.977905,334.969391 450.722687,330.415771 443.678772,325.556274 
	C441.133759,323.800476 440.858826,321.495941 441.869690,318.265137 
	C444.930542,308.482513 447.443268,298.526306 450.077301,288.613190 
	C451.151764,284.569489 452.283966,280.985321 457.793427,281.995361 
	C460.047882,282.408691 462.468262,282.245880 464.774475,281.992737 
	C476.873230,280.664429 488.959595,279.223267 501.893524,277.848877 
	C502.195190,273.200226 502.496857,268.551605 502.952209,262.991791 
	C502.915131,257.968781 502.878082,252.945786 502.982849,247.006531 
	C502.999908,242.508377 503.114502,238.006546 502.945923,233.515366 
	C502.914795,232.686478 501.738281,231.900558 500.163361,231.003555 
	C484.282349,229.560074 468.401337,228.116592 452.565186,226.677200 
	C452.005280,224.251678 451.385193,222.203979 451.073853,220.110352 
	C449.368378,208.642029 446.469330,197.531509 441.808655,186.873779 
	C441.412842,185.968719 442.405518,183.675323 443.392365,183.071411 
	C450.691071,178.604813 458.164612,174.424973 465.557556,170.111053 
	C470.822784,167.038696 476.150024,164.049271 481.197754,160.649033 
	C482.110046,160.034515 482.422180,157.382889 481.942078,156.059738 
	C480.427002,151.884323 478.465240,147.864304 476.564148,143.837082 
	C472.898712,136.072220 469.288116,128.274734 465.308868,120.671814 
	C464.688385,119.486298 462.153229,118.541069 460.658295,118.727325 
	C457.115234,119.168762 453.579681,120.110718 450.193054,121.287590 
	C438.617584,125.310181 427.131500,129.590302 415.550964,133.597824 
	C413.441162,134.327942 411.860291,134.570724 409.566437,131.828430 
	C403.387787,124.441956 396.131226,117.914604 388.972015,111.410019 
	C385.701965,108.438988 384.918213,105.802338 387.573761,101.997070 
	C389.774261,98.843773 392.167633,95.766701 393.917786,92.368599 
	C398.973358,82.552643 403.808899,72.620743 408.521606,62.635612 
	C408.923492,61.784058 408.151978,59.600216 407.281403,59.044537 
	C396.075867,51.892174 384.785461,44.869965 373.407623,37.995075 
	C372.329529,37.343658 369.975739,37.296085 369.150848,38.026283 
	C366.996948,39.932926 365.341370,42.409691 363.526154,44.690216 
	C359.291016,50.010952 355.114624,55.378803 350.846252,60.672585 
	C347.292755,65.079735 342.851105,68.989395 340.254791,73.888824 
	C337.605347,78.888557 334.757935,79.372688 329.984131,77.902252 
	C322.523590,75.604248 314.959106,73.584793 307.345306,71.859222 
	C299.357635,70.048920 298.458008,69.483879 298.023438,63.304031 
	C296.959167,48.170498 295.892456,33.037132 294.555634,17.156876 
	C293.700867,16.763773 292.847992,16.032982 291.991058,16.028145 
	C278.835236,15.953883 265.678497,16.029703 252.522888,15.938427 
	C248.615021,15.911313 248.799103,18.299379 248.940536,21.803566 
	C248.585785,23.894598 248.159210,25.976360 247.888000,28.078173 
	C246.187393,41.257374 244.598373,54.452045 242.717438,67.605125 
	C242.541550,68.835091 240.768204,70.436073 239.440491,70.808121 
	C227.604126,74.124825 215.701126,77.203758 203.179413,80.521896 
	C201.377853,77.611710 199.230896,73.764870 196.725327,70.167824 
	C189.447968,59.720375 182.100830,49.318565 174.550171,39.068939 
	C173.776230,38.018337 170.945572,37.229542 169.915405,37.813061 
	C158.398315,44.336628 147.016525,51.102840 135.708115,57.984154 
	C134.753067,58.565304 134.027542,60.517448 134.177078,61.709522 
	C134.472702,64.066238 135.202332,66.452827 136.196869,68.623474 
	C141.477615,80.149078 146.862091,91.627647 152.278839,103.090286 
	C155.940445,110.838783 155.936691,111.028427 148.300171,116.024231 
	C147.810822,116.641960 147.321472,117.259697 146.925720,117.883682 
	C146.925720,117.883682 146.931931,117.790077 146.425705,118.030334 
	C146.213745,118.331047 146.001770,118.631752 145.932175,118.932449 
	C145.932175,118.932449 145.932129,118.790070 145.426117,119.030403 
z"/>
<path fill="#605854" opacity="1.000000" stroke="none" 
	d="
M294.826721,17.903696 
	C295.892456,33.037132 296.959167,48.170498 298.023438,63.304031 
	C298.458008,69.483879 299.357635,70.048920 307.345306,71.859222 
	C314.959106,73.584793 322.523590,75.604248 329.984131,77.902252 
	C334.757935,79.372688 337.605347,78.888557 340.254791,73.888824 
	C342.851105,68.989395 347.292755,65.079735 350.846252,60.672585 
	C355.114624,55.378803 359.291016,50.010952 363.526154,44.690216 
	C365.341370,42.409691 366.996948,39.932926 369.150848,38.026283 
	C369.975739,37.296085 372.329529,37.343658 373.407623,37.995075 
	C384.785461,44.869965 396.075867,51.892174 407.281403,59.044537 
	C408.151978,59.600216 408.923492,61.784058 408.521606,62.635612 
	C403.808899,72.620743 398.973358,82.552643 393.917786,92.368599 
	C392.167633,95.766701 389.774261,98.843773 387.573761,101.997070 
	C384.918213,105.802338 385.701965,108.438988 388.972015,111.410019 
	C396.131226,117.914604 403.387787,124.441956 409.566437,131.828430 
	C411.860291,134.570724 413.441162,134.327942 415.550964,133.597824 
	C427.131500,129.590302 438.617584,125.310181 450.193054,121.287590 
	C453.579681,120.110718 457.115234,119.168762 460.658295,118.727325 
	C462.153229,118.541069 464.688385,119.486298 465.308868,120.671814 
	C469.288116,128.274734 472.898712,136.072220 476.564148,143.837082 
	C478.465240,147.864304 480.427002,151.884323 481.942078,156.059738 
	C482.422180,157.382889 482.110046,160.034515 481.197754,160.649033 
	C476.150024,164.049271 470.822784,167.038696 465.557556,170.111053 
	C458.164612,174.424973 450.691071,178.604813 443.392365,183.071411 
	C442.405518,183.675323 441.412842,185.968719 441.808655,186.873779 
	C446.469330,197.531509 449.368378,208.642029 451.073853,220.110352 
	C451.385193,222.203979 452.005280,224.251678 452.565186,226.677200 
	C468.401337,228.116592 484.282349,229.560074 500.570801,231.506943 
	C501.042175,236.981491 501.106049,241.952652 501.127716,247.393448 
	C501.112274,252.867722 501.139069,257.872345 501.137085,263.351074 
	C501.088959,268.490540 501.069611,273.155914 501.050262,277.821320 
	C488.959595,279.223267 476.873230,280.664429 464.774475,281.992737 
	C462.468262,282.245880 460.047882,282.408691 457.793427,281.995361 
	C452.283966,280.985321 451.151764,284.569489 450.077301,288.613190 
	C447.443268,298.526306 444.930542,308.482513 441.869690,318.265137 
	C440.858826,321.495941 441.133759,323.800476 443.678772,325.556274 
	C450.722687,330.415771 457.977905,334.969391 465.013428,339.840546 
	C470.600281,343.708618 476.069855,347.762207 481.377869,352.000916 
	C482.248718,352.696320 482.701385,355.114105 482.182678,356.156158 
	C478.841980,362.867584 475.053345,369.354828 471.659760,376.041565 
	C469.139893,381.006683 467.079376,386.204041 464.602234,391.192719 
	C464.168549,392.066162 462.554535,393.067505 461.710449,392.896973 
	C458.425568,392.233246 455.119324,391.393372 452.026123,390.120636 
	C445.210327,387.316132 438.473999,384.305542 431.793793,381.189270 
	C427.828400,379.339386 424.108368,376.960724 420.132446,375.137238 
	C417.367676,373.869232 414.403137,372.919098 411.430573,372.278564 
	C410.207581,372.015045 408.033325,372.499176 407.474670,373.387329 
	C401.937378,382.190643 394.044495,388.662750 386.291687,395.273743 
	C384.104645,397.138641 383.495544,398.852234 384.980255,401.601990 
	C389.305420,409.612335 393.385254,417.755829 397.515320,425.870514 
	C400.022675,430.796997 402.620850,435.692993 404.754944,440.780273 
	C405.175934,441.783844 404.063324,444.121277 402.976318,444.957977 
	C394.079163,451.806274 385.085388,458.535156 375.963684,465.081207 
	C373.767578,466.657227 370.985016,467.415894 367.457825,469.008392 
	C356.000458,454.800110 344.334290,440.332855 333.214081,426.542664 
	C322.588715,428.800812 312.262268,431.020111 301.923676,433.181244 
	C297.416840,434.123352 297.513428,437.798798 297.117493,441.133453 
	C295.641022,453.568298 294.231995,466.011139 292.761993,478.446777 
	C292.687683,479.075531 292.280029,479.664856 291.729431,480.968140 
	C288.409851,489.013947 288.409851,489.016754 280.065430,489.018036 
	C271.120422,489.019440 262.171448,489.163300 253.232849,488.923035 
	C250.530869,488.850372 247.857712,487.705933 245.171326,487.052429 
	C244.775558,479.145050 244.452988,471.233185 243.965454,463.331451 
	C243.356812,453.466125 242.612335,443.609192 241.970047,434.374695 
	C231.053665,431.276733 220.715958,428.400665 210.417114,425.391632 
	C206.355148,424.204834 205.582581,426.819519 203.760712,429.620178 
	C199.852570,435.627899 194.892166,440.940338 190.549881,446.679108 
	C185.050766,453.946655 179.591370,461.253754 174.406754,468.745789 
	C171.841415,472.452881 168.649139,472.490845 165.437714,470.767609 
	C156.040741,465.725098 146.897736,460.209961 137.510178,455.149078 
	C130.228546,451.223480 129.910568,449.700653 133.618546,442.244629 
	C138.252609,432.926483 142.262680,423.297913 146.537872,413.801453 
	C148.642410,409.126617 149.902298,403.765778 153.033081,399.930634 
	C157.676071,394.243103 154.205261,391.477783 150.168228,387.704163 
	C148.446930,386.170105 147.129791,385.106445 145.812653,384.042786 
	C145.499863,384.014343 145.258591,383.867981 144.919510,383.063721 
	C143.105225,381.030029 141.460297,379.536285 139.815369,378.042542 
	C139.517426,378.021423 139.282150,377.888977 138.861328,377.237427 
	C138.380112,376.547516 138.147079,376.265381 137.914062,375.983215 
	C137.914062,375.983215 138.072433,376.136169 137.897827,375.905823 
	C137.108978,375.126282 136.494751,374.577118 135.880524,374.027985 
	C129.839081,366.242126 127.969284,366.257965 119.755821,371.687592 
	C114.675316,375.046051 108.875778,377.318237 103.393112,380.066254 
	C100.664970,381.433624 97.939079,382.807129 95.183868,384.118408 
	C92.031136,385.618896 88.941048,387.865936 85.645363,388.247375 
	C83.217064,388.528412 79.357407,387.069641 78.106506,385.120911 
	C71.450943,374.752472 65.357956,364.018616 59.260849,353.302795 
	C58.662914,352.251923 58.787777,349.722229 59.548805,349.132172 
	C66.499496,343.743134 73.665802,338.632263 80.768707,333.439514 
	C87.212921,328.728241 93.720177,324.098450 100.033112,319.217377 
	C100.999954,318.469788 101.888458,316.126129 101.426956,315.255280 
	C96.356964,305.688019 94.932381,295.147522 92.675797,284.804230 
	C92.429123,283.673615 90.331139,282.556641 88.890755,282.155640 
	C85.604073,281.240784 82.212448,280.633331 78.827446,280.156708 
	C73.044540,279.342346 67.237625,278.692505 61.434132,278.032104 
	C55.076912,277.308746 48.702869,276.725861 42.354885,275.932007 
	C39.531815,275.578918 37.618107,274.461426 37.921738,270.851929 
	C38.311123,266.222961 38.048599,261.539215 38.400406,256.163208 
	C39.153015,253.578598 39.896969,251.716110 39.933228,249.839935 
	C40.066406,242.948959 39.964619,236.053436 39.951256,229.159622 
	C51.058155,228.426956 62.171635,227.779541 73.269005,226.923325 
	C78.333000,226.532623 83.351707,225.526001 88.416908,225.190674 
	C91.453384,224.989655 92.246742,223.071503 92.779091,220.828384 
	C94.890572,211.931412 96.842438,202.996460 98.964226,194.102020 
	C100.563011,187.399994 100.026070,186.544830 93.061058,181.626129 
	C84.973740,175.914886 77.099869,169.899811 69.176918,163.958511 
	C67.071953,162.380035 65.007401,160.710373 63.130440,158.872101 
	C57.386749,153.246841 57.149204,153.039673 61.096569,146.516983 
	C67.036461,136.701813 73.535553,127.225792 79.515549,117.433746 
	C81.191948,114.688721 82.751228,114.624588 85.138138,115.957870 
	C93.773834,120.781609 102.391869,125.638664 111.083923,130.359116 
	C115.352890,132.677505 119.785667,134.692337 124.115677,136.900696 
	C129.883698,139.842438 131.392624,134.172150 134.435349,131.740753 
	C135.610916,130.801361 136.293747,129.245346 137.901962,127.927567 
	C140.690887,125.203873 142.778900,122.522865 144.866898,119.841858 
	C144.866898,119.841858 144.873718,119.925362 145.217407,120.024445 
	C145.684769,119.679047 145.808441,119.234558 145.932129,118.790070 
	C145.932129,118.790070 145.932175,118.932449 146.246506,119.027176 
	C146.684540,118.677971 146.808243,118.234024 146.931946,117.790077 
	C146.931931,117.790077 146.925720,117.883682 147.200516,118.090790 
	C147.983887,117.523918 148.492477,116.749947 149.001068,115.975975 
	C155.936691,111.028427 155.940445,110.838783 152.278839,103.090286 
	C146.862091,91.627647 141.477615,80.149078 136.196869,68.623474 
	C135.202332,66.452827 134.472702,64.066238 134.177078,61.709522 
	C134.027542,60.517448 134.753067,58.565304 135.708115,57.984154 
	C147.016525,51.102840 158.398315,44.336628 169.915405,37.813061 
	C170.945572,37.229542 173.776230,38.018337 174.550171,39.068939 
	C182.100830,49.318565 189.447968,59.720375 196.725327,70.167824 
	C199.230896,73.764870 201.377853,77.611710 203.179413,80.521896 
	C215.701126,77.203758 227.604126,74.124825 239.440491,70.808121 
	C240.768204,70.436073 242.541550,68.835091 242.717438,67.605125 
	C244.598373,54.452045 246.187393,41.257374 247.888000,28.078173 
	C248.159210,25.976360 248.585785,23.894598 249.330429,21.207355 
	C251.862778,19.709724 253.991135,18.069433 256.150024,18.028200 
	C269.038361,17.782063 281.933716,17.904762 294.826721,17.903696 
M168.317413,355.311798 
	C168.574615,355.548218 168.831818,355.784668 168.934784,355.893677 
	C168.934784,355.893677 169.062180,355.739410 169.192139,356.454285 
	C170.841736,357.622253 172.491333,358.790222 174.041565,360.021210 
	C174.041565,360.021210 173.978485,359.921906 174.261200,360.296844 
	C174.433304,360.564117 174.651520,360.786011 175.241226,361.566132 
	C176.306473,362.612793 177.225571,363.890961 178.459702,364.670166 
	C190.038361,371.980835 201.512573,379.480316 213.362701,386.326782 
	C218.388260,389.230286 224.116501,391.132294 229.742096,392.723114 
	C235.564423,394.369568 241.740585,394.739288 247.602570,396.275665 
	C265.348022,400.926666 282.963287,399.527588 300.535004,395.575378 
	C316.379608,392.011688 331.420959,386.481750 345.441589,378.015320 
	C362.481018,367.726013 377.588013,355.391724 388.636475,338.734009 
	C398.736053,323.506927 407.702850,307.593048 411.578308,289.453979 
	C413.678894,279.622223 416.454895,269.689026 416.648193,259.757263 
	C416.893341,247.161880 416.064850,234.253082 413.407806,221.975357 
	C410.711090,209.514236 405.468658,197.562378 400.832275,185.584442 
	C399.124603,181.172775 396.143372,177.200211 393.426727,173.244614 
	C388.407196,165.935989 383.945953,158.020065 377.841644,151.724838 
	C362.974945,136.393082 345.681580,124.117012 325.691925,116.261276 
	C310.721802,110.378159 295.243317,106.142143 278.493530,105.288788 
	C273.919464,103.459328 269.392639,102.704529 264.259735,105.991112 
	C261.344147,106.093681 258.316559,105.722763 255.532471,106.381256 
	C243.835831,109.147690 232.140518,111.973381 220.593048,115.293304 
	C215.192169,116.846077 209.770767,118.985626 204.994522,121.900963 
	C197.551300,126.444176 190.499908,131.679016 183.562927,136.987259 
	C177.286194,141.790298 170.964264,146.671234 165.449982,152.290787 
	C160.969528,156.856750 157.861267,162.735229 153.782623,167.736557 
	C145.448807,177.955704 141.237961,190.274490 136.314880,202.142105 
	C132.455109,211.446472 130.572876,221.411240 128.632584,231.400665 
	C125.822357,245.868881 127.105194,259.984222 128.857483,274.218231 
	C129.445816,278.997375 130.930954,283.674805 132.126190,288.368164 
	C133.374527,293.270020 134.600784,298.192139 136.236664,302.968414 
	C136.566910,303.932648 138.687698,304.283600 139.768646,305.611084 
	C139.346252,307.504150 137.964050,309.913422 138.658997,311.205566 
	C142.823517,318.949036 147.465820,326.435547 152.299194,334.597565 
	C154.209564,337.346588 156.119949,340.095612 158.138199,343.522095 
	C158.854202,344.327118 159.570190,345.132111 160.767136,346.135284 
	C161.197205,346.665375 161.627274,347.195435 162.298706,348.327332 
	C162.929474,348.872437 163.560242,349.417572 164.607727,350.101562 
	C164.872986,350.277008 165.013840,350.523560 165.136383,351.548553 
	C166.175903,352.682800 167.215424,353.817078 168.096817,355.069641 
	C168.096817,355.069641 167.978470,354.911560 168.317413,355.311798 
z"/>
<path fill="#7B716D" opacity="1.000000" stroke="none" 
	d="
M245.109375,487.487976 
	C247.857712,487.705933 250.530869,488.850372 253.232849,488.923035 
	C262.171448,489.163300 271.120422,489.019440 280.065430,489.018036 
	C288.409851,489.016754 288.409851,489.013947 291.637756,481.376526 
	C292.240479,492.605865 292.852234,490.912445 282.310059,490.978851 
	C271.015991,491.050018 259.720734,490.948242 248.426941,491.039368 
	C246.094452,491.058167 244.410812,490.885773 245.109375,487.487976 
z"/>
<path fill="#978D88" opacity="1.000000" stroke="none" 
	d="
M294.691162,17.530285 
	C281.933716,17.904762 269.038361,17.782063 256.150024,18.028200 
	C253.991135,18.069433 251.862778,19.709724 249.404175,20.779366 
	C248.799103,18.299379 248.615021,15.911313 252.522888,15.938427 
	C265.678497,16.029703 278.835236,15.953883 291.991058,16.028145 
	C292.847992,16.032982 293.700867,16.763773 294.691162,17.530285 
z"/>
<path fill="#7B726B" opacity="1.000000" stroke="none" 
	d="
M39.575325,229.288010 
	C39.964619,236.053436 40.066406,242.948959 39.933228,249.839935 
	C39.896969,251.716110 39.153015,253.578598 38.459892,255.694489 
	C38.125706,248.129333 38.020725,240.316833 38.059223,232.505035 
	C38.064304,231.473648 38.801346,230.445862 39.575325,229.288010 
z"/>
<path fill="#C0B8B3" opacity="1.000000" stroke="none" 
	d="
M501.169952,246.923813 
	C501.106049,241.952652 501.042175,236.981491 501.034363,231.552567 
	C501.738281,231.900558 502.914795,232.686478 502.945923,233.515366 
	C503.114502,238.006546 502.999908,242.508377 502.695740,247.352600 
	C501.995758,247.440384 501.582855,247.182098 501.169952,246.923813 
z"/>
<path fill="#9A8F8B" opacity="1.000000" stroke="none" 
	d="
M501.127716,247.393448 
	C501.582855,247.182098 501.995758,247.440384 502.624817,247.810730 
	C502.878082,252.945786 502.915131,257.968781 502.677246,263.309509 
	C501.990173,263.377106 501.578003,263.127045 501.165863,262.876984 
	C501.139069,257.872345 501.112274,252.867722 501.127716,247.393448 
z"/>
<path fill="#79716A" opacity="1.000000" stroke="none" 
	d="
M501.137085,263.351074 
	C501.578003,263.127045 501.990173,263.377106 502.600433,263.765076 
	C502.496857,268.551605 502.195190,273.200226 501.471893,277.835083 
	C501.069611,273.155914 501.088959,268.490540 501.137085,263.351074 
z"/>
<path fill="#CDC4C0" opacity="1.000000" stroke="none" 
	d="
M144.517517,119.902023 
	C142.778900,122.522865 140.690887,125.203873 138.264313,127.941391 
	C140.006546,125.319328 142.087341,122.640755 144.517517,119.902023 
z"/>
<path fill="#766D69" opacity="1.000000" stroke="none" 
	d="
M139.908325,378.380676 
	C141.460297,379.536285 143.105225,381.030029 144.853821,382.856018 
	C143.305405,381.698425 141.653336,380.208649 139.908325,378.380676 
z"/>
<path fill="#766D69" opacity="1.000000" stroke="none" 
	d="
M145.905563,384.378815 
	C147.129791,385.106445 148.446930,386.170105 149.862854,387.545715 
	C148.640594,386.810089 147.319534,385.762451 145.905563,384.378815 
z"/>
<path fill="#CDC4C0" opacity="1.000000" stroke="none" 
	d="
M148.650620,116.000107 
	C148.492477,116.749947 147.983887,117.523918 147.153717,118.087662 
	C147.321472,117.259697 147.810822,116.641960 148.650620,116.000107 
z"/>
<path fill="#766D69" opacity="1.000000" stroke="none" 
	d="
M135.923340,374.372284 
	C136.494751,374.577118 137.108978,375.126282 137.821365,375.984985 
	C137.268402,375.768555 136.617264,375.242584 135.923340,374.372284 
z"/>
<path fill="#766D69" opacity="1.000000" stroke="none" 
	d="
M137.981079,376.267639 
	C138.147079,376.265381 138.380112,376.547516 138.785156,377.043823 
	C138.654144,377.022644 138.351120,376.787323 137.981079,376.267639 
z"/>
<path fill="#CDC4C0" opacity="1.000000" stroke="none" 
	d="
M146.678833,117.910202 
	C146.808243,118.234024 146.684540,118.677971 146.175323,119.027184 
	C146.001770,118.631752 146.213745,118.331047 146.678833,117.910202 
z"/>
<path fill="#CDC4C0" opacity="1.000000" stroke="none" 
	d="
M145.679108,118.910233 
	C145.808441,119.234558 145.684769,119.679047 145.175659,120.027832 
	C145.002182,119.631554 145.214157,119.330978 145.679108,118.910233 
z"/>
<path fill="#000000" opacity="1.000000" stroke="none" 
	d="
M278.957184,105.867004 
	C295.243317,106.142143 310.721802,110.378159 325.691925,116.261276 
	C345.681580,124.117012 362.974945,136.393082 377.841644,151.724838 
	C383.945953,158.020065 388.407196,165.935989 393.426727,173.244614 
	C396.143372,177.200211 399.124603,181.172775 400.832275,185.584442 
	C405.468658,197.562378 410.711090,209.514236 413.407806,221.975357 
	C416.064850,234.253082 416.893341,247.161880 416.648193,259.757263 
	C416.454895,269.689026 413.678894,279.622223 411.578308,289.453979 
	C407.702850,307.593048 398.736053,323.506927 388.636475,338.734009 
	C377.588013,355.391724 362.481018,367.726013 345.441589,378.015320 
	C331.420959,386.481750 316.379608,392.011688 300.535004,395.575378 
	C282.963287,399.527588 265.348022,400.926666 247.602570,396.275665 
	C241.740585,394.739288 235.564423,394.369568 229.742096,392.723114 
	C224.116501,391.132294 218.388260,389.230286 213.362701,386.326782 
	C201.512573,379.480316 190.038361,371.980835 178.459702,364.670166 
	C177.225571,363.890961 176.306473,362.612793 175.053116,361.000610 
	C174.569489,360.264008 174.273987,360.092957 173.978485,359.921906 
	C173.978485,359.921906 174.041565,360.021210 173.919067,359.697144 
	C172.218430,358.161896 170.640305,356.950653 169.062180,355.739410 
	C169.062180,355.739410 168.934784,355.893677 168.935257,355.681213 
	C168.616638,355.283051 168.297562,355.097290 167.978470,354.911560 
	C167.978470,354.911560 168.096817,355.069641 168.083740,354.679138 
	C167.057205,353.139496 166.043747,351.990326 165.030273,350.841187 
	C165.013840,350.523560 164.872986,350.277008 164.311798,349.697998 
	C163.363037,348.771454 162.710205,348.248474 162.057358,347.725525 
	C161.627274,347.195435 161.197205,346.665375 160.425751,345.716339 
	C159.399673,344.479797 158.714996,343.662231 158.030319,342.844635 
	C156.119949,340.095612 154.209564,337.346588 152.144012,333.856384 
	C151.553360,324.383179 155.150131,316.882629 159.154648,309.492340 
	C159.904770,308.107971 160.423019,306.597961 161.424484,305.135101 
	C162.437500,305.004913 163.468735,305.089722 163.652039,304.735626 
	C166.453094,299.324402 169.191162,301.098480 173.319199,303.760773 
	C179.105530,307.492523 185.738190,309.912018 192.388153,312.962219 
	C198.143097,314.419556 203.518723,315.807465 209.148010,317.498352 
	C217.220581,319.366486 225.063416,320.392487 233.473389,318.904083 
	C238.634598,318.292114 243.342697,317.626465 248.435577,317.018677 
	C258.659546,315.721680 267.592804,311.950104 276.293945,306.859222 
	C276.729401,306.564148 276.908173,306.284363 277.059326,306.054016 
	C277.031708,306.103455 277.130646,306.158569 277.481445,306.111084 
	C283.612793,302.520813 289.582611,299.244812 295.100037,295.331116 
	C298.201782,293.130920 300.556519,289.877625 303.444916,287.016418 
	C303.885315,286.762939 304.047913,286.534363 304.474670,286.188599 
	C305.273987,285.441406 305.728485,284.754089 306.471985,283.895630 
	C311.852417,277.185242 316.943909,270.645996 322.390686,264.064270 
	C325.012024,260.698975 327.118256,257.252655 329.572815,254.075424 
	C338.629425,242.352356 343.414734,228.684692 347.788757,214.802795 
	C351.831116,201.973511 354.277924,188.856995 355.058411,175.431259 
	C355.140503,174.018906 355.069458,172.597641 355.069458,170.717072 
	C346.793732,177.193161 338.435608,180.663559 328.444824,181.137085 
	C320.322937,181.372559 312.663025,181.642944 304.584839,181.945312 
	C301.444946,181.708847 298.723389,181.440384 295.640137,181.110382 
	C294.546234,181.052902 293.813995,181.056961 292.637024,180.995850 
	C289.442078,180.614471 286.685608,179.982086 283.942688,180.036133 
	C271.293488,180.285400 258.648041,180.725876 245.629700,181.066498 
	C244.513290,181.045975 243.768387,181.056717 242.600845,180.999863 
	C235.117538,182.317490 228.056900,183.702698 220.719208,185.060608 
	C220.254761,185.285599 220.067352,185.537872 219.827271,185.707825 
	C219.774628,185.625534 219.609940,185.730682 219.201981,185.720154 
	C210.679657,186.378464 203.321442,189.074051 196.476120,194.110275 
	C191.340622,197.284866 185.521759,199.061050 182.623108,204.971985 
	C178.158813,209.815506 173.278076,214.136353 170.093781,219.470032 
	C165.365799,227.389328 161.514084,235.915421 160.127655,245.234589 
	C159.109848,252.075943 158.263123,258.942719 157.340164,265.798157 
	C157.988678,266.125641 158.637192,266.453125 159.285706,266.780609 
	C162.896881,264.184448 166.369675,261.362823 170.150436,259.043060 
	C176.388397,255.215652 182.825317,251.712509 189.542145,248.030746 
	C191.942871,247.281387 193.979828,246.573959 196.402191,245.942841 
	C200.162445,245.069138 203.538300,244.122711 206.911896,243.168243 
	C211.683441,241.818253 216.453308,240.462311 221.624512,239.083984 
	C228.741394,237.785278 235.457672,236.511505 242.598083,235.154373 
	C248.697556,234.006927 254.372864,232.942841 260.475891,231.955658 
	C267.971466,230.754364 275.039307,229.476181 282.510986,228.126984 
	C284.792847,227.644089 286.662598,226.943115 288.550903,226.888916 
	C291.299774,226.810043 294.116974,223.270370 296.613831,227.049500 
	C296.147003,227.373032 295.976746,227.638260 295.570129,228.117218 
	C287.177612,231.881897 279.107147,235.487854 270.675659,239.172470 
	C268.803192,239.798416 267.288757,240.337799 265.780701,240.894440 
	C260.202820,242.953308 254.627045,245.017853 248.643402,247.036316 
	C240.742737,249.277390 233.249161,251.562408 225.797150,253.934875 
	C225.838699,254.022339 226.012970,253.937836 225.684875,253.917267 
	C224.923401,253.945068 224.490005,253.993439 223.649963,254.003372 
	C216.117813,256.290924 208.992325,258.616913 201.494949,260.956970 
	C199.749298,261.351257 198.375534,261.731506 196.625153,262.033600 
	C189.425278,264.789215 182.458557,267.327759 175.824936,270.551727 
	C170.686478,273.049042 165.951492,276.382599 161.087601,279.425049 
	C160.770432,279.623474 160.885101,280.512238 160.633148,281.358551 
	C157.211075,284.623535 153.639130,287.338013 150.775558,290.662598 
	C146.893784,295.169342 143.554810,300.143585 139.983002,304.917297 
	C138.687698,304.283600 136.566910,303.932648 136.236664,302.968414 
	C134.600784,298.192139 133.374527,293.270020 132.126190,288.368164 
	C130.930954,283.674805 129.445816,278.997375 128.857483,274.218231 
	C127.105194,259.984222 125.822357,245.868881 128.632584,231.400665 
	C130.572876,221.411240 132.455109,211.446472 136.314880,202.142105 
	C141.237961,190.274490 145.448807,177.955704 153.782623,167.736557 
	C157.861267,162.735229 160.969528,156.856750 165.449982,152.290787 
	C170.964264,146.671234 177.286194,141.790298 183.562927,136.987259 
	C190.499908,131.679016 197.551300,126.444176 204.994522,121.900963 
	C209.770767,118.985626 215.192169,116.846077 220.593048,115.293304 
	C232.140518,111.973381 243.835831,109.147690 255.532471,106.381256 
	C258.316559,105.722763 261.344147,106.093681 265.109009,105.983414 
	C270.291260,105.939476 274.624237,105.903244 278.957184,105.867004 
z"/>
<path fill="#4E4B40" opacity="1.000000" stroke="none" 
	d="
M139.875824,305.264191 
	C143.554810,300.143585 146.893784,295.169342 150.775558,290.662598 
	C153.639130,287.338013 157.211075,284.623535 160.989471,281.263977 
	C167.219940,279.118835 168.220383,279.718628 168.837479,285.444550 
	C169.459579,291.216980 169.235580,296.657013 163.942551,300.647522 
	C162.606644,301.654663 161.993530,303.620605 161.048279,305.145935 
	C160.423019,306.597961 159.904770,308.107971 159.154648,309.492340 
	C155.150131,316.882629 151.553360,324.383179 151.968399,333.561707 
	C147.465820,326.435547 142.823517,318.949036 138.658997,311.205566 
	C137.964050,309.913422 139.346252,307.504150 139.875824,305.264191 
z"/>
<path fill="#7B736C" opacity="1.000000" stroke="none" 
	d="
M278.725342,105.577896 
	C274.624237,105.903244 270.291260,105.939476 265.498535,105.928162 
	C269.392639,102.704529 273.919464,103.459328 278.725342,105.577896 
z"/>
<path fill="#7E7672" opacity="1.000000" stroke="none" 
	d="
M169.127167,356.096863 
	C170.640305,356.950653 172.218430,358.161896 173.968750,359.665649 
	C172.491333,358.790222 170.841736,357.622253 169.127167,356.096863 
z"/>
<path fill="#7E7672" opacity="1.000000" stroke="none" 
	d="
M165.083328,351.194885 
	C166.043747,351.990326 167.057205,353.139496 168.162811,354.619995 
	C167.215424,353.817078 166.175903,352.682800 165.083328,351.194885 
z"/>
<path fill="#7E7672" opacity="1.000000" stroke="none" 
	d="
M158.084259,343.183350 
	C158.714996,343.662231 159.399673,344.479797 160.185272,345.617249 
	C159.570190,345.132111 158.854202,344.327118 158.084259,343.183350 
z"/>
<path fill="#7E7672" opacity="1.000000" stroke="none" 
	d="
M162.178040,348.026428 
	C162.710205,348.248474 163.363037,348.771454 164.103439,349.628540 
	C163.560242,349.417572 162.929474,348.872437 162.178040,348.026428 
z"/>
<path fill="#7E7672" opacity="1.000000" stroke="none" 
	d="
M168.147949,355.111694 
	C168.297562,355.097290 168.616638,355.283051 169.012375,355.744934 
	C168.831818,355.784668 168.574615,355.548218 168.147949,355.111694 
z"/>
<path fill="#7E7672" opacity="1.000000" stroke="none" 
	d="
M174.119843,360.109375 
	C174.273987,360.092957 174.569489,360.264008 174.890442,360.698822 
	C174.651520,360.786011 174.433304,360.564117 174.119843,360.109375 
z"/>
<path fill="#54923C" opacity="1.000000" stroke="none" 
	d="
M328.906830,181.171997 
	C338.435608,180.663559 346.793732,177.193161 355.069458,170.717072 
	C355.069458,172.597641 355.140503,174.018906 355.058411,175.431259 
	C354.277924,188.856995 351.831116,201.973511 347.788757,214.802795 
	C343.414734,228.684692 338.629425,242.352356 329.572815,254.075424 
	C327.118256,257.252655 325.012024,260.698975 322.266785,263.711182 
	C320.875549,260.238190 319.305023,257.104584 319.165192,253.908401 
	C318.551666,239.889038 318.387848,225.850586 317.990051,211.821045 
	C317.718689,202.250793 317.330109,192.683838 317.437866,183.066620 
	C321.556824,182.402557 325.231842,181.787277 328.906830,181.171997 
z"/>
<path fill="#538A3D" opacity="1.000000" stroke="none" 
	d="
M316.993927,183.115417 
	C317.330109,192.683838 317.718689,202.250793 317.990051,211.821045 
	C318.387848,225.850586 318.551666,239.889038 319.165192,253.908401 
	C319.305023,257.104584 320.875549,260.238190 321.911499,263.753693 
	C316.943909,270.645996 311.852417,277.185242 306.211731,284.057556 
	C305.151672,285.009888 304.640747,285.629181 304.129852,286.248444 
	C304.047913,286.534363 303.885315,286.762939 303.055847,286.941956 
	C298.901581,286.220703 299.081573,283.399445 299.014099,280.732239 
	C298.667236,267.021820 298.458588,253.305923 297.903900,239.603989 
	C297.745911,235.701401 296.590271,231.839188 295.892151,227.958466 
	C295.976746,227.638260 296.147003,227.373032 296.932678,226.924026 
	C299.208557,225.667191 300.954681,224.649094 302.700836,223.630997 
	C298.119873,223.687057 297.166901,221.118515 297.050659,217.744095 
	C296.851044,211.948349 296.649841,206.152557 296.484894,200.355759 
	C296.302948,193.961746 296.161102,187.566574 296.001770,181.171906 
	C298.723389,181.440384 301.444946,181.708847 304.965027,182.111160 
	C309.506989,182.535141 313.250458,182.825287 316.993927,183.115417 
z"/>
<path fill="#547C40" opacity="1.000000" stroke="none" 
	d="
M249.050476,247.080261 
	C254.627045,245.017853 260.202820,242.953308 265.780701,240.894440 
	C267.288757,240.337799 268.803192,239.798416 270.847260,239.348373 
	C273.262177,239.445602 275.144531,239.445602 277.665070,239.445602 
	C278.111664,247.021469 278.652405,254.559891 278.976624,262.107635 
	C279.381500,271.532562 279.621033,280.964722 279.906708,290.394531 
	C280.071533,295.836212 280.757172,301.380066 277.130646,306.158569 
	C277.130646,306.158569 277.031708,306.103455 276.885986,306.199432 
	C276.500916,306.482330 276.266571,306.675385 276.037292,306.874512 
	C267.592804,311.950104 258.659546,315.721680 248.640015,316.746094 
	C248.833130,316.091461 249.156998,315.662842 249.587357,315.458282 
	C258.654327,311.148956 258.467499,311.163910 257.938995,301.133698 
	C257.138306,285.939270 256.553986,270.731995 256.033478,255.524841 
	C255.781998,248.177750 255.942596,248.172256 249.050476,247.080261 
z"/>
<path fill="#547341" opacity="1.000000" stroke="none" 
	d="
M248.643402,247.036316 
	C255.942596,248.172256 255.781998,248.177750 256.033478,255.524841 
	C256.553986,270.731995 257.138306,285.939270 257.938995,301.133698 
	C258.467499,311.163910 258.654327,311.148956 249.587357,315.458282 
	C249.156998,315.662842 248.833130,316.091461 248.255234,316.688293 
	C243.342697,317.626465 238.634598,318.292114 233.668015,318.616455 
	C234.223129,315.358398 235.648743,312.456848 235.721741,309.521637 
	C235.869568,303.577087 235.222778,297.616516 235.014801,291.658630 
	C234.627472,280.562927 234.250961,269.465881 234.020187,258.366272 
	C233.950089,254.994019 232.755020,253.394409 229.233353,253.890594 
	C228.098648,254.050476 226.916199,253.871414 225.755585,253.847412 
	C233.249161,251.562408 240.742737,249.277390 248.643402,247.036316 
z"/>
<path fill="#536942" opacity="1.000000" stroke="none" 
	d="
M225.797150,253.934875 
	C226.916199,253.871414 228.098648,254.050476 229.233353,253.890594 
	C232.755020,253.394409 233.950089,254.994019 234.020187,258.366272 
	C234.250961,269.465881 234.627472,280.562927 235.014801,291.658630 
	C235.222778,297.616516 235.869568,303.577087 235.721741,309.521637 
	C235.648743,312.456848 234.223129,315.358398 233.214935,318.562805 
	C225.063416,320.392487 217.220581,319.366486 209.460876,317.299744 
	C213.009796,315.526215 214.173599,312.928223 214.009430,309.370911 
	C213.611755,300.754395 213.344208,292.131958 212.994858,283.513092 
	C212.813538,279.039703 212.819901,274.539703 212.302689,270.102844 
	C211.197433,260.621460 211.080414,260.635101 201.866837,260.942902 
	C208.992325,258.616913 216.117813,256.290924 223.842667,254.053055 
	C224.965668,254.073380 225.489319,254.005600 226.012970,253.937836 
	C226.012970,253.937836 225.838699,254.022339 225.797150,253.934875 
z"/>
<path fill="#54853F" opacity="1.000000" stroke="none" 
	d="
M277.481445,306.111084 
	C280.757172,301.380066 280.071533,295.836212 279.906708,290.394531 
	C279.621033,280.964722 279.381500,271.532562 278.976624,262.107635 
	C278.652405,254.559891 278.111664,247.021469 277.665070,239.445602 
	C275.144531,239.445602 273.262177,239.445602 271.208252,239.269699 
	C279.107147,235.487854 287.177612,231.881897 295.570129,228.117218 
	C296.590271,231.839188 297.745911,235.701401 297.903900,239.603989 
	C298.458588,253.305923 298.667236,267.021820 299.014099,280.732239 
	C299.081573,283.399445 298.901581,286.220703 302.858704,287.024292 
	C300.556519,289.877625 298.201782,293.130920 295.100037,295.331116 
	C289.582611,299.244812 283.612793,302.520813 277.481445,306.111084 
z"/>
<path fill="#547640" opacity="1.000000" stroke="none" 
	d="
M260.048187,231.878754 
	C254.372864,232.942841 248.697556,234.006927 242.358582,234.859680 
	C240.817078,231.838760 239.322906,229.062332 239.169662,226.213776 
	C238.554428,214.776321 238.465271,203.311523 237.946960,191.867447 
	C237.736694,187.224701 238.439957,183.313339 243.023499,181.067459 
	C243.768387,181.056717 244.513290,181.045975 245.950562,181.339371 
	C252.100449,181.722672 257.557953,181.801834 263.013245,182.357086 
	C263.321320,195.531815 263.592316,208.231583 263.964050,220.928391 
	C264.087311,225.137802 264.345917,229.295578 260.048187,231.878754 
z"/>
<path fill="#526042" opacity="1.000000" stroke="none" 
	d="
M201.494949,260.956970 
	C211.080414,260.635101 211.197433,260.621460 212.302689,270.102844 
	C212.819901,274.539703 212.813538,279.039703 212.994858,283.513092 
	C213.344208,292.131958 213.611755,300.754395 214.009430,309.370911 
	C214.173599,312.928223 213.009796,315.526215 209.207199,316.996765 
	C203.518723,315.807465 198.143097,314.419556 192.287903,312.563904 
	C191.205963,300.683624 190.574158,289.272552 190.013504,277.857971 
	C189.728226,272.049530 189.028885,266.011688 196.229706,263.357971 
	C196.591064,263.224792 196.749084,262.539795 197.001770,262.111725 
	C198.375534,261.731506 199.749298,261.351257 201.494949,260.956970 
z"/>
<path fill="#546643" opacity="1.000000" stroke="none" 
	d="
M196.768204,193.927231 
	C203.321442,189.074051 210.679657,186.378464 219.341248,186.139099 
	C220.239899,188.354797 220.878311,190.137878 220.897812,191.927719 
	C221.069122,207.654114 221.130173,223.381699 221.223892,239.108932 
	C216.453308,240.462311 211.683441,241.818253 206.911896,243.168243 
	C203.538300,244.122711 200.162445,245.069138 196.549377,245.639572 
	C201.134781,242.334625 203.651901,238.634033 203.141937,232.415680 
	C202.247864,221.513962 202.234467,210.535049 202.022247,199.585175 
	C201.951080,195.912201 200.550613,193.930023 196.768204,193.927231 
z"/>
<path fill="#535745" opacity="1.000000" stroke="none" 
	d="
M189.178391,248.072693 
	C182.825317,251.712509 176.388397,255.215652 170.150436,259.043060 
	C166.369675,261.362823 162.896881,264.184448 159.285706,266.780609 
	C158.637192,266.453125 157.988678,266.125641 157.340164,265.798157 
	C158.263123,258.942719 159.109848,252.075943 160.127655,245.234589 
	C161.514084,235.915421 165.365799,227.389328 170.093781,219.470032 
	C173.278076,214.136353 178.158813,209.815506 182.719879,205.383728 
	C183.430115,207.693710 183.864975,209.654922 183.944534,211.630463 
	C184.351364,221.730545 184.697479,231.833405 184.994766,241.937378 
	C185.083237,244.944687 185.316498,247.706375 189.178391,248.072693 
z"/>
<path fill="#546E42" opacity="1.000000" stroke="none" 
	d="
M221.624512,239.083984 
	C221.130173,223.381699 221.069122,207.654114 220.897812,191.927719 
	C220.878311,190.137878 220.239899,188.354797 219.749207,186.149628 
	C219.609940,185.730682 219.774628,185.625534 220.011597,185.587463 
	C220.497330,185.394836 220.746552,185.240997 220.996246,185.087906 
	C228.056900,183.702698 235.117538,182.317490 242.600845,180.999863 
	C238.439957,183.313339 237.736694,187.224701 237.946960,191.867447 
	C238.465271,203.311523 238.554428,214.776321 239.169662,226.213776 
	C239.322906,229.062332 240.817078,231.838760 241.934433,234.943024 
	C235.457672,236.511505 228.741394,237.785278 221.624512,239.083984 
z"/>
<path fill="#547F3F" opacity="1.000000" stroke="none" 
	d="
M260.475891,231.955658 
	C264.345917,229.295578 264.087311,225.137802 263.964050,220.928391 
	C263.592316,208.231583 263.321320,195.531815 263.478943,182.331650 
	C269.627167,181.943085 275.307526,182.056091 280.989868,182.627136 
	C281.363617,198.122787 281.735413,213.160385 282.107178,228.197998 
	C275.039307,229.476181 267.971466,230.754364 260.475891,231.955658 
z"/>
<path fill="#525844" opacity="1.000000" stroke="none" 
	d="
M196.625153,262.033600 
	C196.749084,262.539795 196.591064,263.224792 196.229706,263.357971 
	C189.028885,266.011688 189.728226,272.049530 190.013504,277.857971 
	C190.574158,289.272552 191.205963,300.683624 191.908585,312.494507 
	C185.738190,309.912018 179.105530,307.492523 173.319199,303.760773 
	C169.191162,301.098480 166.453094,299.324402 163.652039,304.735626 
	C163.468735,305.089722 162.437500,305.004913 161.424469,305.135101 
	C161.993530,303.620605 162.606644,301.654663 163.942551,300.647522 
	C169.235580,296.657013 169.459579,291.216980 168.837479,285.444550 
	C168.220383,279.718628 167.219940,279.118835 161.155212,280.985291 
	C160.885101,280.512238 160.770432,279.623474 161.087601,279.425049 
	C165.951492,276.382599 170.686478,273.049042 175.824936,270.551727 
	C182.458557,267.327759 189.425278,264.789215 196.625153,262.033600 
z"/>
<path fill="#515D42" opacity="1.000000" stroke="none" 
	d="
M189.542145,248.030762 
	C185.316498,247.706375 185.083237,244.944687 184.994766,241.937378 
	C184.697479,231.833405 184.351364,221.730545 183.944534,211.630463 
	C183.864975,209.654922 183.430115,207.693710 183.062347,205.314148 
	C185.521759,199.061050 191.340622,197.284866 196.476120,194.110275 
	C200.550613,193.930023 201.951080,195.912201 202.022247,199.585175 
	C202.234467,210.535049 202.247864,221.513962 203.141937,232.415680 
	C203.651901,238.634033 201.134781,242.334625 196.163971,245.563248 
	C193.979828,246.573959 191.942871,247.281387 189.542145,248.030762 
z"/>
<path fill="#54853F" opacity="1.000000" stroke="none" 
	d="
M282.510986,228.126984 
	C281.735413,213.160385 281.363617,198.122787 281.445923,182.592316 
	C285.627228,181.753296 289.354492,181.407166 293.081757,181.061020 
	C293.813995,181.056961 294.546234,181.052902 295.640137,181.110382 
	C296.161102,187.566574 296.302948,193.961746 296.484894,200.355759 
	C296.649841,206.152557 296.851044,211.948349 297.050659,217.744095 
	C297.166901,221.118515 298.119873,223.687057 302.700836,223.630997 
	C300.954681,224.649094 299.208557,225.667191 297.143616,226.810760 
	C294.116974,223.270370 291.299774,226.810043 288.550903,226.888916 
	C286.662598,226.943115 284.792847,227.644089 282.510986,228.126984 
z"/>
<path fill="#809B6A" opacity="1.000000" stroke="none" 
	d="
M292.637024,180.995850 
	C289.354492,181.407166 285.627228,181.753296 281.443909,182.134262 
	C275.307526,182.056091 269.627167,181.943085 263.481140,181.855530 
	C257.557953,181.801834 252.100449,181.722672 246.322098,181.370636 
	C258.648041,180.725876 271.293488,180.285400 283.942688,180.036133 
	C286.685608,179.982086 289.442078,180.614471 292.637024,180.995850 
z"/>
<path fill="#9AB57F" opacity="1.000000" stroke="none" 
	d="
M317.437866,183.066620 
	C313.250458,182.825287 309.506989,182.535141 305.383301,182.079163 
	C312.663025,181.642944 320.322937,181.372559 328.444824,181.137085 
	C325.231842,181.787277 321.556824,182.402557 317.437866,183.066620 
z"/>
<path fill="#54853F" opacity="1.000000" stroke="none" 
	d="
M304.474670,286.188599 
	C304.640747,285.629181 305.151672,285.009888 305.922791,284.228699 
	C305.728485,284.754089 305.273987,285.441406 304.474670,286.188599 
z"/>
<path fill="#547341" opacity="1.000000" stroke="none" 
	d="
M225.684875,253.917267 
	C225.489319,254.005600 224.965668,254.073380 224.249329,254.091492 
	C224.490005,253.993439 224.923401,253.945068 225.684875,253.917267 
z"/>
<path fill="#546643" opacity="1.000000" stroke="none" 
	d="
M220.719208,185.060608 
	C220.746552,185.240997 220.497330,185.394836 220.064240,185.669769 
	C220.067352,185.537872 220.254761,185.285599 220.719208,185.060608 
z"/>
<path fill="#54853F" opacity="1.000000" stroke="none" 
	d="
M276.293945,306.859222 
	C276.266571,306.675385 276.500916,306.482330 276.913605,306.149994 
	C276.908173,306.284363 276.729401,306.564148 276.293945,306.859222 
z"/>
</svg>